<svg xmlns="http://www.w3.org/2000/svg" width="200" height="59.259" viewBox="0 0 200 59.259"><defs><style>.a{fill:#fff;}</style></defs><path class="a" d="M192.884,59.259H7.006A7.022,7.022,0,0,1,0,52.247V7A7.012,7.012,0,0,1,7.006,0H192.884A7.108,7.108,0,0,1,200,7V52.247a7.118,7.118,0,0,1-7.116,7.012Z" transform="translate(0 0)"/><path class="a" d="M198.137,51.82a5.674,5.674,0,0,1-5.68,5.674H6.577A5.681,5.681,0,0,1,.89,51.82V6.571A5.688,5.688,0,0,1,6.577.89H192.456a5.68,5.68,0,0,1,5.68,5.681V51.82Z" transform="translate(0.429 0.429)"/><g transform="translate(18.951 9.21)"><path d="M38.475,23.353a8.588,8.588,0,0,1,4.09-7.206A8.8,8.8,0,0,0,35.638,12.4c-2.914-.307-5.741,1.744-7.225,1.744-1.514,0-3.8-1.714-6.264-1.664a9.223,9.223,0,0,0-7.763,4.735c-3.357,5.812-.853,14.353,2.363,19.05,1.609,2.3,3.489,4.87,5.95,4.779,2.407-.1,3.307-1.535,6.212-1.535,2.879,0,3.723,1.535,6.233,1.477,2.584-.041,4.21-2.311,5.763-4.633a19.011,19.011,0,0,0,2.636-5.367A8.3,8.3,0,0,1,38.475,23.353Z" transform="translate(-12.792 -3.254)"/><path d="M28.768,12.275A8.453,8.453,0,0,0,30.7,6.217,8.611,8.611,0,0,0,25.135,9.1a8.044,8.044,0,0,0-1.985,5.834A7.112,7.112,0,0,0,28.768,12.275Z" transform="translate(-7.826 -6.217)"/></g><g transform="translate(62.83 26.668)"><path d="M59.054,37.912H55.69L53.847,32.12H47.441l-1.756,5.791H42.41L48.757,18.2h3.92Zm-5.763-8.221-1.667-5.148q-.264-.789-.994-3.714h-.059q-.291,1.258-.936,3.714L48,29.691Z" transform="translate(-42.41 -17.907)"/><path d="M69.111,28.936a8.079,8.079,0,0,1-1.96,5.732,5.731,5.731,0,0,1-4.359,1.873,4.358,4.358,0,0,1-4.037-2.018H58.7v7.489H55.538V26.683q0-2.28-.117-4.68H58.2l.176,2.253h.059a5.62,5.62,0,0,1,8.994-.557A7.833,7.833,0,0,1,69.111,28.936Zm-3.218.116a5.853,5.853,0,0,0-.936-3.422,3.234,3.234,0,0,0-2.75-1.4,3.285,3.285,0,0,0-2.12.775,3.594,3.594,0,0,0-1.243,2.034A4.135,4.135,0,0,0,58.7,28v2.37a3.8,3.8,0,0,0,.951,2.619,3.152,3.152,0,0,0,2.471,1.068A3.234,3.234,0,0,0,64.9,32.68,6.051,6.051,0,0,0,65.894,29.052Z" transform="translate(-36.145 -16.215)"/><path d="M80.148,28.936a8.073,8.073,0,0,1-1.961,5.732,5.726,5.726,0,0,1-4.357,1.873,4.354,4.354,0,0,1-4.036-2.018h-.059v7.489H66.576V26.683q0-2.28-.117-4.68h2.778l.176,2.253h.059a5.621,5.621,0,0,1,9-.557A7.854,7.854,0,0,1,80.148,28.936Zm-3.218.116a5.853,5.853,0,0,0-.938-3.422,3.229,3.229,0,0,0-2.748-1.4A3.289,3.289,0,0,0,71.123,25a3.592,3.592,0,0,0-1.241,2.034,4.216,4.216,0,0,0-.147.963v2.37a3.81,3.81,0,0,0,.948,2.619,3.159,3.159,0,0,0,2.474,1.068,3.234,3.234,0,0,0,2.778-1.375A6.051,6.051,0,0,0,76.93,29.052Z" transform="translate(-30.831 -16.215)"/><path d="M92.014,32.477a5.254,5.254,0,0,1-1.751,4.095,7.761,7.761,0,0,1-5.37,1.726,9.4,9.4,0,0,1-5.11-1.228l.732-2.633A8.658,8.658,0,0,0,85.081,35.7a4.317,4.317,0,0,0,2.781-.806,2.632,2.632,0,0,0,.993-2.154,2.746,2.746,0,0,0-.819-2.021,7.616,7.616,0,0,0-2.72-1.524q-5.178-1.931-5.176-5.653a5,5,0,0,1,1.815-3.984A7.154,7.154,0,0,1,86.78,18a9.569,9.569,0,0,1,4.474.936l-.79,2.575a7.763,7.763,0,0,0-3.773-.907,3.819,3.819,0,0,0-2.6.819,2.341,2.341,0,0,0-.79,1.785,2.41,2.41,0,0,0,.905,1.93,10.231,10.231,0,0,0,2.868,1.521,9.731,9.731,0,0,1,3.744,2.4A5.008,5.008,0,0,1,92.014,32.477Z" transform="translate(-24.416 -18.001)"/><path d="M97.9,25.43H94.42v6.9q0,2.633,1.843,2.633a5.618,5.618,0,0,0,1.4-.147l.087,2.4a7.156,7.156,0,0,1-2.456.35,3.79,3.79,0,0,1-2.926-1.141,5.6,5.6,0,0,1-1.053-3.833V25.427H89.244v-2.37h2.074v-2.6l3.1-.936v3.539H97.9V25.43Z" transform="translate(-19.86 -17.271)"/><path d="M110.216,28.993a7.8,7.8,0,0,1-1.873,5.382,6.686,6.686,0,0,1-5.209,2.164,6.357,6.357,0,0,1-4.985-2.076,7.559,7.559,0,0,1-1.858-5.236,7.722,7.722,0,0,1,1.916-5.41,6.629,6.629,0,0,1,5.161-2.107,6.492,6.492,0,0,1,5.031,2.077A7.473,7.473,0,0,1,110.216,28.993Zm-3.277.1a6.4,6.4,0,0,0-.847-3.373,3.12,3.12,0,0,0-2.836-1.7,3.167,3.167,0,0,0-2.9,1.7,6.517,6.517,0,0,0-.847,3.433,6.386,6.386,0,0,0,.847,3.372,3.228,3.228,0,0,0,5.7-.03A6.417,6.417,0,0,0,106.939,29.1Z" transform="translate(-16.467 -16.214)"/><path d="M115.093,24.781a5.484,5.484,0,0,0-1-.087,2.984,2.984,0,0,0-2.575,1.259,4.733,4.733,0,0,0-.79,2.807v7.459h-3.157l.03-9.739q0-2.458-.119-4.476h2.751l.116,2.72h.087a4.861,4.861,0,0,1,1.579-2.252,3.819,3.819,0,0,1,2.283-.761,5.072,5.072,0,0,1,.79.058v3.012Z" transform="translate(-11.077 -16.215)"/><path d="M126.262,28.447a7.408,7.408,0,0,1-.116,1.433h-9.476a4.125,4.125,0,0,0,1.375,3.219,4.694,4.694,0,0,0,3.1.994,10.48,10.48,0,0,0,3.834-.673l.495,2.193a11.853,11.853,0,0,1-4.766.879,6.9,6.9,0,0,1-5.194-1.945,7.184,7.184,0,0,1-1.886-5.221,8.144,8.144,0,0,1,1.757-5.353,6.053,6.053,0,0,1,4.97-2.28,5.3,5.3,0,0,1,4.653,2.28A7.689,7.689,0,0,1,126.262,28.447Zm-3.012-.819a4.291,4.291,0,0,0-.613-2.428,2.759,2.759,0,0,0-2.517-1.317,3,3,0,0,0-2.514,1.287,4.713,4.713,0,0,0-.935,2.456h6.579Z" transform="translate(-8.12 -16.223)"/></g><g transform="translate(64.705 9.713)"><path d="M51.637,11.532A4.863,4.863,0,0,1,50.07,15.47a6.234,6.234,0,0,1-4.123,1.221,19.116,19.116,0,0,1-2.271-.116V7.047a16.76,16.76,0,0,1,2.674-.2,5.765,5.765,0,0,1,3.837,1.107A4.472,4.472,0,0,1,51.637,11.532ZM50,11.575a3.541,3.541,0,0,0-.9-2.6,3.539,3.539,0,0,0-2.624-.905,6.571,6.571,0,0,0-1.25.1v7.243a8.2,8.2,0,0,0,1.049.043,3.672,3.672,0,0,0,2.751-.991A3.969,3.969,0,0,0,50,11.575Z" transform="translate(-43.676 -6.416)"/><path d="M57.132,12.2a3.831,3.831,0,0,1-.92,2.644,3.284,3.284,0,0,1-2.559,1.064,3.121,3.121,0,0,1-2.45-1.021,3.718,3.718,0,0,1-.911-2.572,3.793,3.793,0,0,1,.941-2.658,3.263,3.263,0,0,1,2.536-1.034,3.194,3.194,0,0,1,2.473,1.019A3.687,3.687,0,0,1,57.132,12.2Zm-1.61.05a3.159,3.159,0,0,0-.416-1.658,1.533,1.533,0,0,0-1.393-.836,1.557,1.557,0,0,0-1.424.836,3.2,3.2,0,0,0-.416,1.686,3.159,3.159,0,0,0,.416,1.658,1.567,1.567,0,0,0,1.409.836,1.549,1.549,0,0,0,1.393-.85A3.139,3.139,0,0,0,55.522,12.25Z" transform="translate(-40.491 -5.561)"/><path d="M66.054,8.719,63.868,15.7H62.446l-.905-3.033a22.7,22.7,0,0,1-.561-2.256h-.028a16.518,16.518,0,0,1-.561,2.256L59.428,15.7H57.99L55.935,8.719h1.6l.79,3.32q.287,1.178.474,2.241h.028Q59,13.4,59.4,12.054L60.39,8.72h1.265l.95,3.262q.344,1.193.56,2.3h.043a21.968,21.968,0,0,1,.474-2.3l.847-3.262h1.524Z" transform="translate(-37.774 -5.515)"/><path d="M70.188,15.75H68.635v-4q0-1.849-1.407-1.849a1.4,1.4,0,0,0-1.121.508,1.8,1.8,0,0,0-.431,1.2v4.142H64.122V10.762q0-.92-.056-2H65.43L65.5,9.856h.043a2.243,2.243,0,0,1,.8-.843,2.624,2.624,0,0,1,1.407-.393,2.229,2.229,0,0,1,1.625.633,3.074,3.074,0,0,1,.8,2.314Z" transform="translate(-33.859 -5.562)"/><path d="M71.592,16.744H70.041V6.556h1.551Z" transform="translate(-30.982 -6.556)"/><path d="M79.481,12.2a3.831,3.831,0,0,1-.92,2.644A3.286,3.286,0,0,1,76,15.907a3.117,3.117,0,0,1-2.45-1.021,3.718,3.718,0,0,1-.911-2.572,3.793,3.793,0,0,1,.941-2.658,3.262,3.262,0,0,1,2.535-1.034,3.2,3.2,0,0,1,2.474,1.019A3.687,3.687,0,0,1,79.481,12.2Zm-1.612.05a3.159,3.159,0,0,0-.416-1.658,1.531,1.531,0,0,0-1.391-.836,1.554,1.554,0,0,0-1.424.836,3.2,3.2,0,0,0-.416,1.686,3.159,3.159,0,0,0,.416,1.658,1.567,1.567,0,0,0,1.409.836,1.547,1.547,0,0,0,1.391-.85A3.125,3.125,0,0,0,77.869,12.25Z" transform="translate(-29.73 -5.561)"/><path d="M84.193,15.749H82.8l-.116-.8h-.043a2.391,2.391,0,0,1-2.04.963,2.105,2.105,0,0,1-1.594-.633,1.983,1.983,0,0,1-.547-1.422A2.17,2.17,0,0,1,79.531,11.9a5.559,5.559,0,0,1,3.012-.661v-.13q0-1.38-1.45-1.379a3.248,3.248,0,0,0-1.821.517l-.316-1.019a4.479,4.479,0,0,1,2.4-.6q2.738,0,2.741,2.889v2.572A10.907,10.907,0,0,0,84.193,15.749Zm-1.612-2.4V12.272q-2.569-.044-2.569,1.407a1.052,1.052,0,0,0,.3.819,1.086,1.086,0,0,0,.759.273,1.568,1.568,0,0,0,.95-.323,1.326,1.326,0,0,0,.563-1.1Z" transform="translate(-26.928 -5.561)"/><path d="M90.452,16.744H89.074L89,15.623h-.043a2.321,2.321,0,0,1-2.243,1.28,2.628,2.628,0,0,1-2.1-.991,3.861,3.861,0,0,1-.833-2.572,4.049,4.049,0,0,1,.905-2.745,2.783,2.783,0,0,1,2.156-.978,2.093,2.093,0,0,1,1.967.948h.03V6.556H90.4v8.307Q90.4,15.883,90.452,16.744ZM88.843,13.8V12.635a2.286,2.286,0,0,0-.043-.489,1.768,1.768,0,0,0-.561-.941,1.526,1.526,0,0,0-1.039-.381,1.593,1.593,0,0,0-1.366.69,2.959,2.959,0,0,0-.5,1.767,2.758,2.758,0,0,0,.477,1.681,1.6,1.6,0,0,0,1.357.689,1.5,1.5,0,0,0,1.227-.575A1.914,1.914,0,0,0,88.843,13.8Z" transform="translate(-24.364 -6.556)"/><path d="M99.471,12.2a3.831,3.831,0,0,1-.92,2.644,3.281,3.281,0,0,1-2.559,1.064,3.125,3.125,0,0,1-2.45-1.021,3.717,3.717,0,0,1-.911-2.572,3.793,3.793,0,0,1,.941-2.658A3.264,3.264,0,0,1,96.11,8.623a3.191,3.191,0,0,1,2.471,1.019A3.687,3.687,0,0,1,99.471,12.2Zm-1.609.05a3.159,3.159,0,0,0-.416-1.658,1.535,1.535,0,0,0-1.394-.836,1.561,1.561,0,0,0-1.424.836,3.2,3.2,0,0,0-.416,1.686,3.159,3.159,0,0,0,.416,1.658,1.587,1.587,0,0,0,2.8-.015A3.152,3.152,0,0,0,97.862,12.25Z" transform="translate(-20.105 -5.561)"/><path d="M104.872,15.75h-1.551v-4q0-1.849-1.409-1.849a1.4,1.4,0,0,0-1.12.508,1.8,1.8,0,0,0-.431,1.2v4.142H98.807V10.762q0-.92-.055-2h1.363l.073,1.092h.043a2.266,2.266,0,0,1,.8-.843,2.629,2.629,0,0,1,1.409-.393,2.228,2.228,0,0,1,1.624.633,3.068,3.068,0,0,1,.8,2.314Z" transform="translate(-17.158 -5.562)"/><path d="M111.318,10.447h-1.71V13.84c0,.862.3,1.293.905,1.293a2.734,2.734,0,0,0,.692-.073l.04,1.178a3.488,3.488,0,0,1-1.206.173,1.856,1.856,0,0,1-1.436-.56,2.739,2.739,0,0,1-.519-1.883V10.447h-1.021V9.284h1.021V8l1.521-.459V9.283h1.71v1.164Z" transform="translate(-13.155 -6.08)"/><path d="M117.455,16.744H115.9v-3.97q0-1.878-1.406-1.879a1.482,1.482,0,0,0-1.481,1.089,1.951,1.951,0,0,0-.073.559v4.2H111.39V6.556h1.551v4.209h.03a2.347,2.347,0,0,1,2.1-1.148,2.164,2.164,0,0,1,1.6.633,3.18,3.18,0,0,1,.79,2.342Z" transform="translate(-11.073 -6.556)"/><path d="M123.225,11.931a3.749,3.749,0,0,1-.058.7h-4.656a2.036,2.036,0,0,0,.674,1.581,2.313,2.313,0,0,0,1.524.489,5.144,5.144,0,0,0,1.883-.33l.243,1.079a5.847,5.847,0,0,1-2.344.431,3.385,3.385,0,0,1-2.55-.956,3.52,3.52,0,0,1-.926-2.564,4,4,0,0,1,.862-2.63,2.969,2.969,0,0,1,2.441-1.12,2.6,2.6,0,0,1,2.283,1.12A3.728,3.728,0,0,1,123.225,11.931Zm-1.481-.4a2.09,2.09,0,0,0-.3-1.193,1.356,1.356,0,0,0-1.236-.647,1.474,1.474,0,0,0-1.236.633,2.35,2.35,0,0,0-.461,1.207h3.233Z" transform="translate(-8.364 -5.565)"/></g></svg>